<mxfile host="app.diagrams.net" agent="Mozilla/5.0 (X11; Linux x86_64) AppleWebKit/537.36 (KHTML, like Gecko) Chrome/141.0.0.0 Safari/537.36" version="28.2.8">
  <diagram name="Page-1" id="jFyaQr6U3pQtSnYZEWDk">
    <mxGraphModel dx="1410" dy="870" grid="1" gridSize="10" guides="1" tooltips="1" connect="1" arrows="1" fold="1" page="1" pageScale="1" pageWidth="850" pageHeight="1100" math="0" shadow="0">
      <root>
        <mxCell id="0" />
        <mxCell id="1" parent="0" />
        <mxCell id="bFYHiZkWxn1XryPGGM3K-9" value="" style="rounded=0;whiteSpace=wrap;html=1;strokeColor=#6c8ebf;fillColor=#dae8fc;" vertex="1" parent="1">
          <mxGeometry x="130" y="130" width="230" height="440" as="geometry" />
        </mxCell>
        <mxCell id="bFYHiZkWxn1XryPGGM3K-12" value="" style="rounded=0;whiteSpace=wrap;html=1;strokeColor=none;" vertex="1" parent="1">
          <mxGeometry x="130" y="130" width="230" height="40" as="geometry" />
        </mxCell>
        <mxCell id="bFYHiZkWxn1XryPGGM3K-3" value="" style="html=1;verticalLabelPosition=bottom;labelBackgroundColor=#ffffff;verticalAlign=top;shadow=0;dashed=0;strokeWidth=2;shape=mxgraph.ios7.misc.options;sketch=0;fillColor=light-dark(#DAE8FC,#5C79A3);strokeColor=#6c8ebf;" vertex="1" parent="1">
          <mxGeometry x="140" y="140" width="20" height="20" as="geometry" />
        </mxCell>
        <mxCell id="bFYHiZkWxn1XryPGGM3K-13" value="&lt;b&gt;&lt;font style=&quot;font-size: 14px;&quot;&gt;User Dashboard&lt;/font&gt;&lt;/b&gt;" style="text;html=1;whiteSpace=wrap;strokeColor=none;fillColor=none;align=center;verticalAlign=middle;rounded=0;" vertex="1" parent="1">
          <mxGeometry x="130" y="135" width="230" height="30" as="geometry" />
        </mxCell>
        <mxCell id="bFYHiZkWxn1XryPGGM3K-14" value="&lt;b&gt;&lt;font style=&quot;font-size: 20px;&quot;&gt;User Name&lt;/font&gt;&lt;/b&gt;" style="text;html=1;whiteSpace=wrap;strokeColor=none;fillColor=none;align=center;verticalAlign=middle;rounded=0;" vertex="1" parent="1">
          <mxGeometry x="200" y="195" width="140" height="30" as="geometry" />
        </mxCell>
        <mxCell id="bFYHiZkWxn1XryPGGM3K-15" value="" style="whiteSpace=wrap;html=1;aspect=fixed;" vertex="1" parent="1">
          <mxGeometry x="140" y="180" width="60" height="60" as="geometry" />
        </mxCell>
        <mxCell id="bFYHiZkWxn1XryPGGM3K-16" value="&lt;ul style=&quot;padding-left: 20px; line-height: 200%;&quot;&gt;&lt;li&gt;User created:&lt;br&gt;&lt;/li&gt;&lt;li&gt;Number of Pokemons:&lt;/li&gt;&lt;li&gt;Number of shinies:&lt;/li&gt;&lt;/ul&gt;&lt;p&gt;&lt;/p&gt;" style="text;html=1;whiteSpace=wrap;overflow=hidden;rounded=0;" vertex="1" parent="1">
          <mxGeometry x="140" y="250" width="160" height="140" as="geometry" />
        </mxCell>
        <mxCell id="bFYHiZkWxn1XryPGGM3K-17" value="&lt;div style=&quot;line-height: 200%;&quot;&gt;&lt;div&gt;21. nov 2025&lt;/div&gt;&lt;div&gt;42&lt;/div&gt;&lt;div&gt;4&lt;/div&gt;&lt;/div&gt;" style="text;html=1;whiteSpace=wrap;overflow=hidden;rounded=0;align=right;" vertex="1" parent="1">
          <mxGeometry x="260" y="260" width="90" height="80" as="geometry" />
        </mxCell>
        <mxCell id="bFYHiZkWxn1XryPGGM3K-29" value="" style="rounded=0;whiteSpace=wrap;html=1;strokeColor=#6c8ebf;fillColor=#dae8fc;" vertex="1" parent="1">
          <mxGeometry x="490" y="130" width="230" height="440" as="geometry" />
        </mxCell>
        <mxCell id="bFYHiZkWxn1XryPGGM3K-30" value="" style="rounded=0;whiteSpace=wrap;html=1;strokeColor=none;" vertex="1" parent="1">
          <mxGeometry x="490" y="130" width="230" height="40" as="geometry" />
        </mxCell>
        <mxCell id="bFYHiZkWxn1XryPGGM3K-31" value="" style="html=1;verticalLabelPosition=bottom;labelBackgroundColor=#ffffff;verticalAlign=top;shadow=0;dashed=0;strokeWidth=2;shape=mxgraph.ios7.misc.options;sketch=0;fillColor=light-dark(#DAE8FC,#5C79A3);strokeColor=#6c8ebf;" vertex="1" parent="1">
          <mxGeometry x="500" y="140" width="20" height="20" as="geometry" />
        </mxCell>
        <mxCell id="bFYHiZkWxn1XryPGGM3K-32" value="&lt;b&gt;&lt;font style=&quot;font-size: 14px;&quot;&gt;Pokemons&lt;/font&gt;&lt;/b&gt;" style="text;html=1;whiteSpace=wrap;strokeColor=none;fillColor=none;align=center;verticalAlign=middle;rounded=0;" vertex="1" parent="1">
          <mxGeometry x="490" y="135" width="230" height="30" as="geometry" />
        </mxCell>
        <mxCell id="bFYHiZkWxn1XryPGGM3K-38" value="" style="rounded=1;whiteSpace=wrap;html=1;" vertex="1" parent="1">
          <mxGeometry x="500" y="190" width="210" height="70" as="geometry" />
        </mxCell>
        <mxCell id="bFYHiZkWxn1XryPGGM3K-8" value="" style="verticalLabelPosition=bottom;verticalAlign=top;html=1;shadow=0;dashed=0;strokeWidth=1;shape=mxgraph.android.phone2;" vertex="1" parent="1">
          <mxGeometry x="120" y="80" width="250" height="540" as="geometry" />
        </mxCell>
        <mxCell id="bFYHiZkWxn1XryPGGM3K-50" value="&lt;h1 style=&quot;margin-top: 0px; margin-bottom: 0px;&quot;&gt;&lt;font style=&quot;font-size: 14px;&quot;&gt;Ditto&lt;/font&gt;&lt;/h1&gt;&lt;p style=&quot;margin-top: 5px; margin-bottom: 12px;&quot;&gt;&lt;font style=&quot;font-size: 10px;&quot;&gt;Caught: 22. okt 2025&lt;/font&gt;&lt;/p&gt;" style="text;html=1;whiteSpace=wrap;overflow=hidden;rounded=0;" vertex="1" parent="1">
          <mxGeometry x="570" y="190" width="140" height="70" as="geometry" />
        </mxCell>
        <mxCell id="bFYHiZkWxn1XryPGGM3K-51" value="" style="html=1;verticalLabelPosition=bottom;labelBackgroundColor=#ffffff;verticalAlign=top;shadow=0;dashed=0;strokeWidth=2;shape=mxgraph.ios7.misc.right;strokeColor=light-dark(#0080F0,#5C79A3);" vertex="1" parent="1">
          <mxGeometry x="690" y="219" width="6" height="12" as="geometry" />
        </mxCell>
        <mxCell id="bFYHiZkWxn1XryPGGM3K-52" value="" style="rounded=1;whiteSpace=wrap;html=1;" vertex="1" parent="1">
          <mxGeometry x="500" y="270" width="210" height="70" as="geometry" />
        </mxCell>
        <mxCell id="bFYHiZkWxn1XryPGGM3K-54" value="&lt;h1 style=&quot;margin-top: 0px; margin-bottom: 0px;&quot;&gt;&lt;font style=&quot;font-size: 14px;&quot;&gt;Amoonguss&lt;/font&gt;&lt;/h1&gt;&lt;p style=&quot;margin-top: 5px; margin-bottom: 12px;&quot;&gt;&lt;font style=&quot;font-size: 10px;&quot;&gt;Caught: 22. okt 2025&lt;/font&gt;&lt;/p&gt;" style="text;html=1;whiteSpace=wrap;overflow=hidden;rounded=0;" vertex="1" parent="1">
          <mxGeometry x="570" y="270" width="140" height="70" as="geometry" />
        </mxCell>
        <mxCell id="bFYHiZkWxn1XryPGGM3K-55" value="" style="html=1;verticalLabelPosition=bottom;labelBackgroundColor=#ffffff;verticalAlign=top;shadow=0;dashed=0;strokeWidth=2;shape=mxgraph.ios7.misc.right;strokeColor=light-dark(#0080F0,#5C79A3);" vertex="1" parent="1">
          <mxGeometry x="690" y="299" width="6" height="12" as="geometry" />
        </mxCell>
        <mxCell id="bFYHiZkWxn1XryPGGM3K-56" value="" style="rounded=1;whiteSpace=wrap;html=1;" vertex="1" parent="1">
          <mxGeometry x="500" y="350" width="210" height="70" as="geometry" />
        </mxCell>
        <mxCell id="bFYHiZkWxn1XryPGGM3K-58" value="&lt;h1 style=&quot;margin-top: 0px; margin-bottom: 0px;&quot;&gt;&lt;font style=&quot;font-size: 14px;&quot;&gt;Snorlax&lt;/font&gt;&lt;/h1&gt;&lt;p style=&quot;margin-top: 5px; margin-bottom: 12px;&quot;&gt;&lt;font style=&quot;font-size: 10px;&quot;&gt;Caught: 22. okt 2025&lt;/font&gt;&lt;/p&gt;" style="text;html=1;whiteSpace=wrap;overflow=hidden;rounded=0;" vertex="1" parent="1">
          <mxGeometry x="570" y="350" width="140" height="70" as="geometry" />
        </mxCell>
        <mxCell id="bFYHiZkWxn1XryPGGM3K-59" value="" style="html=1;verticalLabelPosition=bottom;labelBackgroundColor=#ffffff;verticalAlign=top;shadow=0;dashed=0;strokeWidth=2;shape=mxgraph.ios7.misc.right;strokeColor=light-dark(#0080F0,#5C79A3);" vertex="1" parent="1">
          <mxGeometry x="690" y="379" width="6" height="12" as="geometry" />
        </mxCell>
        <mxCell id="bFYHiZkWxn1XryPGGM3K-60" value="" style="rounded=1;whiteSpace=wrap;html=1;" vertex="1" parent="1">
          <mxGeometry x="500" y="430" width="210" height="70" as="geometry" />
        </mxCell>
        <mxCell id="bFYHiZkWxn1XryPGGM3K-62" value="&lt;h1 style=&quot;margin-top: 0px; margin-bottom: 0px;&quot;&gt;&lt;font style=&quot;font-size: 14px;&quot;&gt;Celebi&lt;/font&gt;&lt;/h1&gt;&lt;p style=&quot;margin-top: 5px; margin-bottom: 12px;&quot;&gt;&lt;font style=&quot;font-size: 10px;&quot;&gt;Caught: 22. okt 2025&lt;/font&gt;&lt;/p&gt;" style="text;html=1;whiteSpace=wrap;overflow=hidden;rounded=0;" vertex="1" parent="1">
          <mxGeometry x="570" y="430" width="140" height="70" as="geometry" />
        </mxCell>
        <mxCell id="bFYHiZkWxn1XryPGGM3K-63" value="" style="html=1;verticalLabelPosition=bottom;labelBackgroundColor=#ffffff;verticalAlign=top;shadow=0;dashed=0;strokeWidth=2;shape=mxgraph.ios7.misc.right;strokeColor=light-dark(#0080F0,#5C79A3);" vertex="1" parent="1">
          <mxGeometry x="690" y="459" width="6" height="12" as="geometry" />
        </mxCell>
        <mxCell id="bFYHiZkWxn1XryPGGM3K-64" value="" style="rounded=1;whiteSpace=wrap;html=1;" vertex="1" parent="1">
          <mxGeometry x="500" y="512" width="210" height="70" as="geometry" />
        </mxCell>
        <mxCell id="bFYHiZkWxn1XryPGGM3K-66" value="&lt;h1 style=&quot;margin-top: 0px; margin-bottom: 0px;&quot;&gt;&lt;span style=&quot;background-color: transparent; color: light-dark(rgb(0, 0, 0), rgb(255, 255, 255)); font-size: 14px;&quot;&gt;Applin&lt;/span&gt;&lt;/h1&gt;&lt;h1 style=&quot;margin-top: 0px; margin-bottom: 0px;&quot;&gt;&lt;span style=&quot;font-size: 10px; background-color: transparent; color: light-dark(rgb(0, 0, 0), rgb(255, 255, 255)); font-weight: normal;&quot;&gt;Caught: 22. okt 2025&lt;/span&gt;&lt;/h1&gt;" style="text;html=1;whiteSpace=wrap;overflow=hidden;rounded=0;" vertex="1" parent="1">
          <mxGeometry x="570" y="512" width="140" height="70" as="geometry" />
        </mxCell>
        <mxCell id="bFYHiZkWxn1XryPGGM3K-67" value="" style="html=1;verticalLabelPosition=bottom;labelBackgroundColor=#ffffff;verticalAlign=top;shadow=0;dashed=0;strokeWidth=2;shape=mxgraph.ios7.misc.right;strokeColor=light-dark(#0080F0,#5C79A3);" vertex="1" parent="1">
          <mxGeometry x="690" y="541" width="6" height="12" as="geometry" />
        </mxCell>
        <mxCell id="bFYHiZkWxn1XryPGGM3K-28" value="" style="verticalLabelPosition=bottom;verticalAlign=top;html=1;shadow=0;dashed=0;strokeWidth=1;shape=mxgraph.android.phone2;" vertex="1" parent="1">
          <mxGeometry x="480" y="80" width="250" height="540" as="geometry" />
        </mxCell>
        <mxCell id="bFYHiZkWxn1XryPGGM3K-70" value="" style="shape=image;verticalLabelPosition=bottom;labelBackgroundColor=default;verticalAlign=top;aspect=fixed;imageAspect=0;image=data:image/png,iVBORw0KGgoAAAANSUhEUgAAAGAAAABgCAYAAADimHc4AAAJtUlEQVR4AeybLXwVRxTFZyurQBbV2LqAKqimjrqkCqpKXWTimiqoauKIK1VtFOCKAxRUQVRbGVQqicKm93+7d3vfvt19XzM7C9n89ryZuXNn5s45M7P7PvJRGP+yMjAKkJX+EEYBRgEyM5B5+HEHjAJkZiDz8OMOGAXIzEDm4ccdMAqQmYHMw1/MHZCZdD/8KIBnI0N+FCAD6X7IUQDPRob8KEAG0v2QH7oA5zJZg2SHd32wAlz6/IvzzZ8ehvVb3yuEeoSQZFjX0AWANLAQa5C/sbmtbdbW1zUd6stgBYBEW8FCHiIAyXZftDPyvSc7Qcpz9SF+vV2DFcAzAHlAbJ0EtpEv7QZ7DVIAT6Q/QpwICDGFppV/cnxcke/aV7bcmR4FWG2qJycvA4DEnV+fBsAR5THPCLQXP8STJP81eAFsBbO672zvhY2bGxVra59crvJNGWtbrxuSCIMWAAI5ggAknvzzlqTCVFmOG9oYKscBZwYpwNkfzwMkQjwpMA4h3VDZSuJf7G+E37fX9ajiuLL6pnQou2CQAhhhEF+RKiSb3afmgx/2S2uXw+mjvfDX/rYKgW3IGKIA5+XqDJ5U8pDtyaSM3dssb0J07YRynKw35CEKoBxylGjGvUA2pIP710MlkHOZyrIbukSYatBtQCzQ7bVA7WAFYAU3zQMRQFt9U5sVjiPIBnR7Ln+kUTFIAZpW/yqz7hJr1jFUkq4iFEXhw8AGvG3h/NAE0PO/i7C2GX585ctQh/dddhds7T8K/s2evEunW9FlZe7pZ5g/zvVEapQdL+a7s7MT3p0+nYBvtoSo+nG274M8bwgRoSgmdgNVjZhlHNoO0HiNSEg1grWi4cV87+7cbKhd2tRIvvXG+xTZAlZcKe1TAPYsmDtgSDWC5260oCNPSKxoaWaxdZLPExj+RfF+7AAmBWR+IZSrhrJB7au+/HDwJJydTH5MUe9zVn3pP5N8/NgBiEB+VSTfAUY6NzJuaARc2sjWURwf/dhIJiTXnSlj39/fD1dufE2xFZ/tHoa1NXnz4DxY/RQhlKchYqTcBFY+duIjftpQXhXJBbh8fUOfIixQJlkU3dv3q8P/P8OnnZFMSpnVbPeGg4ODsLu7G05fPKSqEfg3VogRIiFfsq2XkY8DvkVRhPdhB3DMEPMUEAHIJJp8GndBURQBsiGe1Q7hdn/gXtH1lNO2+uvke6It6CYbItBWfLpXkjjMupLuALZqVwDlI915kxB+F0CwkW1pF+F+zCtb96aOHuo5jiCSvIcRTgp8XYp8UgE4fgi6ayKIABAB4C/QXQB5kl/6oj1EL9pBV7z0xX1A0pVXv/SR/o3Y25fPGEc/39dMywsiAKnmWAKSDQESNbPAy+ODQ223DPkLDBPFNeUOKDgnr97eqwKdtbJw5FgwGIGIACA2ND1tio0brWFzZ1u/E+BDO550AH3HQMzVTzwpBaD/KXSJ0FSHiICPlTe/3Q5nZ2/1MdXI1lRsDHTp0uWg9wYKJWgHEAGU5qWS2OQTRGoB9CxnIA+IBmYjD6xMymSB3XSxBfkOHpI1716wKfFS78wTWUQAq4ow0WmEQmoBOkOEdFB3miLeOwjJkO2BMN6lK7/sp6LEJP1GufFKP9XVhwCNu6CKoJZhoqz6mjlaEeEW3QnEJAFEJ1/6TP8UxCCCuURgoinJlziqa14RUh9ZfewAm3SnCH2SbwHNEgHyeRLjqUzaVI/Gko929SkAQTeKkIN8gpkFyDcfeZNINroIfQvAJFQESKeQG7N2AfHZTiAviCpCDgFkDoEbWiVEX+c+Ay8KyLc25S6wYpQ0lwAWPEJYPlt6+vNe46/oPPmWL0WItgtyC3A+iNUv7y3q6hvhdXvsckQBYoeWpz+IB32NPgpQMj3Pzbh0tW/DohxDOQUYxvFTssqHemW21ySnAL1OtGswI5/Pibr8UtTlFUA+x08xqfepz7wC5GQK8QW2+hcNJdbjaC4BzvlVw6KTjuYvxNMXX+6Q5kQqAXhCAH5u9bJ+u9X4FaNvFTs/g/y+7wOpBPA/Q4TCc/nTlBcPXYUlKd4ePc8YQDrWMSXl4jdGpE3gq1DQVBfLlkwAAqyT/urVKzXz4qGEQA7wFTHy9AmkL8YBktUL8omRVA3uBeLLeJ01fjamABwxhirSnVufVnkybZOqiIEsgPOyoL2h7KPqvyx3JZCPMF0+VrdqGlMAPXYIHJJ3b68FcHf/gcb4+vVrTY8OtjRtXHXlrxvUoUag2rpezJ/U+UE8cCbNMj6xUiClbKCMvQ6EAXX7KuWYAhTyp7Fcu3YtQDzAwAduEA8Ojt7of7HwFMSEqfeALFDZIHQeVA1CoL3BmaeytigsJSacKAPyANJBmzD4LIuYAmgMPnA1lC+IARADk345/uJh68/KjUBS/GcBP8MsX4SH7MPdrXBnYy2QEpfFxAIy4Ed/Kcin39gCFATOZPTxsr5yGdHBJgwhzjyVNWK70qlGLQbGIj7Gvv/bg2Awd+zv/nwagJFPXdvCom4VxBbgv1ggXnJ1wlQUsfuLH1X5csq8kd84BjGXsLjNDyFYWHbEYudIknTlL5TSCCCRMQlJJi61MUmzlnkmCDlmTpHSPyt/qm9iEBCbYcpHDMQIJBv1SiIAE2mLUutkwrYbtNzmnNoucTA+SD1UW/8pBChYbQy4t7cbDJQNTNhgNlaXtTNbrJR+6X+iv5J8b7NYSb29no91/NBvCgHoV4nfuHo1GGZNShslfOHmWnVfI5/YgMVKSrnyLzMIWX4KWlpWT1IJUPzy/M1EdG2TmnCSAv/PJUlvF0QTG/CDUqbO28jHXP30l0oA+l4aM0VYuucoDVd+8vFRpBSg+ObgsR9Lj6OmVTXhVBaSieCOH2JhpZdDdiYcP+IQlXzpL/mvo6dEYNAmMEE7X9nmABs4+XtSSNrbmT4rxZcbMP/eSn5ePJPPru7d25/XfWm/lDvAgppbBEgH0pCVVuHGd0f6kQViGI6fPNB/R+IrRURoSs2XVPqcuiAYousV2Kgze9meeMwULe1DAIJVETiS/MSoYHJA8kzQIMWJy+xViiisatq2pdJD5U8ePx5/JV9dxAPhHtjMgf4lTz+SxL/6EoDImYS+R2BSBqlQu6SLXtauK633qePXjRDuQX0tPkxJ0KcANoE6YWbvK1URILhpQOxA6ixOyaa7cgiQbjbz96zkQnQd0oXWSdrLdVEFMHKNbJ9aXS/pRRegF5K7BhkF6GKnh7oFBOghmgs4xChAZtFHAUYBMjOQefhxB4wCZGYg8/DjDhgFyMxA5uHHHTAKkJmBzMOPO2CGAKmr/wUAAP//iuLj3wAAAAZJREFUAwA5pvb9Z141DQAAAABJRU5ErkJggg==;" vertex="1" parent="1">
          <mxGeometry x="494" y="347" width="76" height="76" as="geometry" />
        </mxCell>
        <mxCell id="bFYHiZkWxn1XryPGGM3K-73" value="" style="shape=image;verticalLabelPosition=bottom;labelBackgroundColor=default;verticalAlign=top;aspect=fixed;imageAspect=0;image=data:image/png,iVBORw0KGgoAAAANSUhEUgAAAGAAAABgCAYAAADimHc4AAAF1ElEQVR4AeyaLVgjVxSGD1WVicQ1kjpwjSsSqqAKUM2qgktWdeuK2sQtVaUKVpWoDZK6VBXcIqnbdYnE0XkHTp6TWWDDsz/nXvbss1/uuT/hZr73njuZmXwl8c/VgQDgar9IAAgAzg44Tx8ZEACcHXCePjIgADg74Dx9ZEAAcHbAefovMwOcTbfTBwDrhkMcABxMt1MGAOuGQxwAHEy3UwYA64ZDHAAcTLdTBgDrhkMcABxMt1MGAOuGQxwAHEy3U35GAHbaiNWBAKBOOJUBwMl4nTYAqBNOZQBwMl6nzR5A+2DxCukB5VZmDwDDF5sNyRVC9gB6W2dzZ8MLAUKtVrsCSE7KEsDa87+uUNXo1ouG5AYhOwAY/91CQ/rnX0/8Pz8blTFZUAYZvSQBAFNn8YxxmP+0/0bkzx/m7HvYhqg3WzWpJbQV8ZnukzuA56/+vbKr+a4Pq+b/c34xZT4n343tJdEs4P1AoMxBrgAw9aEmzQILILlkgRsAzL9rO6lC0bG3rX72fbYfTK++L4e6G4CHmtP8dn7qxMvW0908ks1Gt/xTlBZELttQFgAa87ulySv1nfKCS82nsXO4LoAgVgFi0D3J4mTsCoBV3V7+VX2bqcRsxODB8NnEfI3JBPpykRuA/tMf54av38hac1Cu6vcZ1mxcysJifWrYavO3qbpWvm8slGEO25AbABx6O34iGMuKZluhrSrbzrjVznJ1SFm3MDRmG1ppf5P07QlXAL3iPg57OA5iLmYj6iraWdFsMbRVs4C2+zTcH9/X7d7nCoCjB4KuasxGCuG6bAgr+u+Lc4ZP9vyy8ghe3AHg4XHvvzkgaDZsr7SEraO7eUp3oUZpvPYXDff/v+m9GB3fROkWSQDAHiBoNuwd79P0jsgO3Yro3O4cSr2+JPVCxLRZvT4f2mqScTIA1B1AcF9nUHyP1zaR4v7PTYXtiBDTX+73CEsRWwgWVDkg0ZfkAEz7hPFouhXztWU0GgnaaLUFCLSr+b/3hzIej6fumtKfkhIH8K5VdpWP1w5kvXtUDtrrPitLNZ9K6t+A+IxJApjFOFY9B3CXclj9fPYkAfDB7EqmrtJtZq410KYyC+r1umy02pO2WSBOBjsGSQJg32YFW1/4Smmh1PpbZTfPB052n5Txytr1tcLW6vFk7+dWtqoclNhLkgDwiBXMtQGmI/1KeTBYobsUENBGqy3aruar6UeddVHJT6+Suy2RLACyAAjVTMB5zLZi5XOljPnLv/whmN9ebwpifMpKFgCmAYHrAiCowbRb0U4/1w5AuXzbEbS717TDpDxnVB7kTw1wqnxEAJ/uCIDQK27cAQSzWemUzMiNup/XmjIoLty4SKNEtPWHq9I5XCrFcwfuLaX2rDgLABinwlh+gEUJANWgeDiDtA4Mbl1UNRqdSkoQkgKgJquJWrcmsuVQx2A0nr8UskGzAggqbt5xIkf6N+1VtLZ5lkkBwAjMZYUiYkQ7wkh+BUGMMJhSfxHBVgUMVa/YtmhDGK/j2cp4XwpKBsD17ecjqRd3Nl+cLgvCcOoqaxhmWhjah9kqbaPEdIBQUk9FyQDANAyvGoNhiH1fn4bdZX71vTnUkwGAWUCg5GcllGwtZAbnAlY7ol1LYvRy71R4AM9Y6jkpKQAYx2qnVAGBGJORwqENUWcMIkNyg5AcAEzd35l+BkCd7EDs4ztLJ4IYywUYJSIzuHomzkVJAhgXD1EwWEXdGkod0W/bc4yTBICRGKyifpvov639c7Z96FzJAnjIgXEeYDwZkRuU7AFwXuAckaP5LJrsAXAQrHpEnJseBYDcTLefNwBYNxziAOBgup0yAFg3HOIA4GC6nTIAWDcc4gDgYLqdMk8A9ggyjwOAM8AAEACcHXCePjIgADg74Dx9ZEAAcHbAefrIgADg7IDz9JEB+QBw/qSPdPrIAGewASAAODvgPH1kQABwdsB5+siAAODsgPP0kQEBwNkB5+kjA94D4FN3/w8AAP//wWQqIQAAAAZJREFUAwBPCY7fyahiCgAAAABJRU5ErkJggg==;" vertex="1" parent="1">
          <mxGeometry x="494" y="420" width="96" height="96" as="geometry" />
        </mxCell>
        <mxCell id="bFYHiZkWxn1XryPGGM3K-74" value="" style="shape=image;verticalLabelPosition=bottom;labelBackgroundColor=default;verticalAlign=top;aspect=fixed;imageAspect=0;image=data:image/png,iVBORw0KGgoAAAANSUhEUgAAAGAAAABgCAYAAADimHc4AAAE2ElEQVR4AeyaQUgVYRDHP8MgsEC8BBUJERmCBZUgQdKlDhF4rksnTwUVgtCtQ9CliKDoEBEdpE6BQZcC6yRGEYSgRUEIHTrEwxBvkvUTBsZlXfdZ68zaBP++mfnm29n3+799D+ptSvHHlEAYYIo/pTAgDDAmYDw+noAwwJiA8fh4AsIAYwLG4+MJCAOMCRiP/z+fAGPoenwYoGkYxGGAAXQ9MgzQNAziMMAAuh4ZBmgaBnEYYABdjwwDNA2DOAwwgK5HhgGahkEcBhhA1yPX0QA9NmIhEAYICaM1DDACL2PDACFhtIYBRuBlbBggJIzWMMAIvIx1bUDvlY5FJDdbduWMqOwZqz63BgDw4rm+hIjLAKIPcUZEXuasVY9LA4AGQIFCTE3yvJV9+pDeJ2dP1zzFLg1oFhCAAd3sufXoX21GbQwAMKCzL4gae9l6XfLaGFAXoM3ep2sDXk5Opgt944k174Xpdz89eb23H02kt9cbLXnnPdRcGzA6OJcajUZiBRYfNUAnzooe3Zvd95q7NqAIGkZgSFGP93c/9+7SAD4ygDdwf1vq6OhIrNxskejJ9n6+96voiIs9lwZABngnenrSnYmjiZVakejRvXwfzM7Ouv3sl9fi1gDgAVFuVNbuQ22p6ONHvow5L2c8r24NABoQ80xgLyvAI76MOZfd95q7NgBowMQE4JJnRR1Rrxt87tm9ASObjyzend+bTp7dnvhi5qYR0BExmno/n+ijf+TPGWp1kFsDBOSZ4/tT/75dS3rz7lQCNGCvXT2cRNTYkz7OyHl6PcudAQIOiAh4O3dsTejx64/p0o096emz/qWcGiJnjxhxhrOI65F7lSsDgAU0lAeMOhLI0kNOXXK9Um9vb1/UNU+xGwMEvoaz0H0waem9ZuJG7+nk1QQ3BmSBAr711tCyMrVlhQ2QuDAg793fOvUhLVy+uQwxtWWFnOTb10ZC2S2vT4ELA7KwJAf49+evEiKW+kqrBq/jlfo91N0YkAVGjgQSMZJcr9SRrhFTQ8Re5cYAAAFLRJ4n2ddrXp+uSa+ueYldGHC+7YsXHut+H//QgHW/9w0xMAwwttGFAfyL54Ef48YobMa7MKDKl97+oGvp8hiM0UuJo7/cGSDAVmNUtm+161jvuzGAdyfv0r8F8nN4SxLJtcgl9ra6MSALBmhaep86uawSk3d2dSaRPCXHhscSBtPnTa4MANLugYcJcAJRVmoABiA1vVKnhqhrzXya0am72JUBQmclaADGCOljJadOrMU1EO9+fq7CLyn0vpfYnQE8BUBbKyCgI32e/zvmd0a65iV2ZwBgMIGPoixI9rKiR0vvYyS/mBsdnKvsO0DPW0vs0gBeCCYAUMPNi+nNinOIumf43J9bA7g5MeHFk2nSQtEDdMQ5rcKDxpuuDYANIIfGplsAWyR66EWcq4vcGyAgAVsk6avbWhsD6ga27P2GAWVJVdQXBlQEtuxlw4CypCrqCwMqAlv2smFAWVIV9dXTgIpgWFw2DLCgrmaGAQqGRRgGWFBXM8MABcMiDAMsqKuZYYCCYRGGARbU1cwwQMGwCMMAC+pqZhigYFiETRhgcXsbf2YYYOxxGBAGGBMwHh9PQBhgTMB4fDwBYYAxAePx8QSEAcYEjMfHE7CKAVVv/wYAAP//8pMVLgAAAAZJREFUAwCcWBHfZu6mLwAAAABJRU5ErkJggg==;" vertex="1" parent="1">
          <mxGeometry x="490" y="502" width="96" height="96" as="geometry" />
        </mxCell>
        <mxCell id="bFYHiZkWxn1XryPGGM3K-76" value="" style="shape=image;verticalLabelPosition=bottom;labelBackgroundColor=default;verticalAlign=top;aspect=fixed;imageAspect=0;image=data:image/png,iVBORw0KGgoAAAANSUhEUgAAAGAAAABgCAYAAADimHc4AAAJFUlEQVR4AeybL3xVNxTH0ynmNrfKzlV2c0O1shIJU2Vq4OgUoAAFuDI1cLgN+RxFsSmorFtlccMN93a+4Z7HeWnuff+Sm/tG+Nzfy8nJSXLy+yX3/bnlC1f/FWWgClCUfueqAFWAwgwUnr6egCpAYQYKT19PQBWgMAOFp68noApQmIHC03+eJ6Aw6Xb6KoBlo4BdBShAup2yCmDZKGBXAQqQbqesAlg2CthVgAKk2ymrAJaNAnYVoADpdsq1EeDhratji92dnTGQxYwDSHV9rkELYAnfu3LDgdPTcwe2Nr9y4GB/11k456wgUh321aMA8xOhxEO44uTk2D15cGdqkP3zLXfn0v4U/r7y0IHfdw6IHbwYgxIgJB4GAcT/OTrG9FDiv9va9vXYC20IAQIxYuHFfIMQoI14WIF8SgXkQ67W5ymJRwgg8XoqxCx/FRWgi3ioCcnndgOZtC0LRDAnYtlhkvUrJgDk6/09tpoY+bG4mO/t2alTxNoRESGkjdMgRbmriABKftuy5yG/i2DGhWSATSxliCGI0LsAs8jn044linu+rWNDKOQCbHwWoT+s29jSIvQqAOSz+JBkfAr7aQcf5FFa4IN4gG3b1MZPO8CndewQJUXoTQDI13v+P3KPDkmgHgoT2/3EAQgF2G2gHSACaIvDX0qEXgRQ8lno8Ysn/hstdoh5dn/YZ546Iii64kt8OsougJIP8YBT0EWCbQt3LfX7H0ZuEdDHjtllI1JX+zJts/pkF0ATgHigdVty6wk/+dA+2jybIps6/kVAn1CwLlH6PgVZBdDdHyNMSYf48NYTi0/pC0WxgvR9CrIKEJK2Kuln5+/ds9GrThATzjurroJYIWb1SdWeTQDd/YuSDoFt2N/b9j89/3Z0z7WBn6jp3yZUF3EqRJ+fiLIJwEJn3V4gKsS161dcG76WXz+3tzcZuhP0jwkkm+LC6YkNxHtGzJ/Dl00AHpqECVuyf9jfixId9gnriBD6bJ1xbV1tvnvQNxSGeE4LuWmstdWXq8wmAAmzEAt2poL2GCAq5l/U9/zpC2fHgvy2MRDl1cmJ01zb4nL4swnArrIJQ7ytq80nIKBkQRR12ilDaFzo1zr9IJ/5GIu6gr7AxtJGvDxfxvRADDE2BNmvbAJI5hvNQsR0jkUCX5EXJYJbALBkUaedknv+tVuP/L2bUrr6K+YnnkY7L+PgA8wBiKM/Qtic6AckthfyZZ7s/03Vi9AsivkmQoyOTx1EeKd5UcL0PQTC3o4eu5cv35ioT2abXyPoD9Fah3DA/Nxy8JMfEBvigZj9XDlPgK6ABU2EaBbq2yAiBMT4RvOiYvxxeNedHb93b5/+9bEUYUzYJ7OxdGyIVrtpcuShEJ/PUcrerz4E0EXpIqfEgAQN0BKyIE3rnBTIf3L7ngOHV686gBjPHx86QIzG86b60827WvUl81iIc5KP2MWuPgWwi5xavCVGbRvMjod49W3J9wFsRLh0/mX0Vka7jkUpdTsntrjKX6UEsCuHjBjczs6ehwZff3ao5qT89WTkY8LYJsCO27iGVWQV4Oed/TGQJfPwG4g5+zrY3x0/Ojq6EPj04JH3nbU80KGxRQiaBoksAkA6ONzadR82//W/3wipEDC3CAQrrh/ddjceyBuwEG/J//aXH92b1681bKps/PPMR4zF1Di5K8kFUOIhn+T5Wx6AvaoIEG7RkMzQy8CTTk4WMpD3S9nLlVQAJT+WuYoQa7M+IWN84/Z965rYEG4xaVjcGMs8/mTSlWfP5Af4JbTPhzLJBOgin0UqWLjY7DIp8l6IJTOEc3nyxe8vSA8fwlBHCAkI+4or7ZVMgFXTEmEgpnX3LzI+z55b4pnDN+mu95WCL0kEsLuf39IV4brYbfiEbAq/u8SGlCTEMyjg2TMi8Dyi5RQ4djmxXejjFCQR4OMinH+ArjYlQlC2AfK53wPIomyLXdSPCIzHuDIP3RGa0rH7vTGAl5UF0N2vZLNo+7NA1xqJ7Wpfpo2db/sxB7C+2O4nfwuNz/2GvLIAJErilLpQvgxRB7QB7BjYoUD7xmIW8bHzGe/w5s1ot9juj+WnPp4TRwdK5FxZgFN3PlcqLAjYYEiSBzf8XGDdK9uIyTdpxgffX748+cgZ7n7NiVNLP4BNEtqGnQsrC0BiJE3JX0BQsgMpAW26IOoW8iPZhtyfk74B2/ERgSdj1tdm21Nr7bb4VP4kAmgyPPgIyaeNBSEE4Gdm2fW4k+98Bg3B3KGPOn8DNM8OJ2ficyGZAGGiYZ0F6AnBBvIcdszpCP205QKkg/DebjeO5hNbQ+q8VhZAbiPOJkzSIEyUGB60hP6SdfIEmgMiAE6y+nKXKwugCUKw2rbED9SHYGJfuP0QA6Qt68WJg3SgE1k79PEGLr4L+YovyZVCgA19/AeBITTL2O5vxNAQX9LfG4leGI9HlM37jn94ExsaESyIoS9lTqQQYGZ+Sn5D+NRuih13Fm4xc4JIgPanyc7BLYY2/DHQpoi1h75V66kE2FCSbUL4AL4Y+fj5VGQJwhdCCVmkZAzGZX7mkDd8/7dF+EHbWLQpmpM9tWG0LVWZSgAnBPtbEQtWkKT4acOMLcT/hQQE0QfCCFwVjMN4jKtjvTv/9IWRdvW3lU1MLOe2Lkv5kwnQzA6hwJMO+eJnEUDM+AU5AMIgDjQExDtEvMTTDzCOhjAuOH33DteGvhcQD3Ba4AMaZ9ty2KkF0BwhXKG+tnIDcr7Z3HQQBQiERMicF8TTT8E4gHGB+qX0IijBkG2BHxAnyH7lEmDRxP2pCYWAQDDPYMRZQDqgrzmJVIHfHBAdQhp9m5S9XEMRgMX6hUOWCgGBwBLbZhNnwYCMBcRmbCkuXPhDXAjK6RiSALpOTwjEKSyxbTadNV5L8fmxpBzsNUQBlCwlz9+elNSuUjpO+jS2FMO+hiyAZS4ktq1u+6yFvS4CrAWZyyS5ngIss9KB9qkCFBamClAFKMxA4enrCagCFGag8PT1BFQBCjNQePp6AqoAhRkoPH09AesjQOFM/6fT1xNQWNgqQBWgMAOFp68noApQmIHC09cTUAUozEDh6esJqAIUZqDw9PUEzBAgd/N/AAAA//9K/RMJAAAABklEQVQDABqOEhuQ/FMgAAAAAElFTkSuQmCC;" vertex="1" parent="1">
          <mxGeometry x="490" y="260" width="96" height="96" as="geometry" />
        </mxCell>
        <mxCell id="bFYHiZkWxn1XryPGGM3K-77" value="" style="shape=image;verticalLabelPosition=bottom;labelBackgroundColor=default;verticalAlign=top;aspect=fixed;imageAspect=0;image=data:image/png,iVBORw0KGgoAAAANSUhEUgAAAGAAAABgCAYAAADimHc4AAAEVUlEQVR4AeyZMZrTMBCFFU4AJeWWW/JRQRk6jgAd4QaBU7B7g9ABJSUd2wEVUKYjHVvCDcw8kQlaJ3E2KM4bw+PzRLJkaeL/t+x4uZH0j0pAAqj4U5IACSATIKfXCpAAMgFyeq0ACSATIKfXCpAAMgFy+v9zBZChl+kloKRBqEsAAXqZUgJKGoS6BBCglykloKRBqEsAAXqZUgJKGoS6BBCglykloKRBqEsAAXqZ8ogCyrSqOwEJcBKkUgJI4D2tBDgJUikBJPCeVgKcBKmUABJ4TysBToJUSgAJvKeVACdBKiWgZ/C7ppeAXYR67h+UgHsv3jenj2aNMfGw6rC3wQgA/LNn4zR7PUnTz0168uobyEMEytQSs2rPnYE/wgsAWMTk8ThjnF/mIs0vF8mkZPDoh5gPTZNm39fl/B4R8zOUAAPaIADUA9geTicGPKW3X1Iu0eaBvunZxHdzeev0ZG2F5I6AH2EEADxuMQgABViPNrcf80U6vX2S7o//rAqsDI/28ZH3QwgAfL/FXAcWrnBEeWwbfnmLKo+LVg8h4OfXRb61OESUhwJ1885Jfk4car5DzxNCwPzN03xeAI/IO62P87ujVkv3Lm5PfpvCrax8pnSPPG5vCAF2yqNdgPHT047buG0bW96mIAEBERsnITVGEdB5+h8vLjr71+R0HA0J1h3mPSGSgK2rALeTd+cvE670XTIM7qC2SAI6weHK9SvdZUAIAvtDFTMYAW4Hq8FlQAgC+2j3Y7pKiLLnQNchR+0LJeAYYD49f5DsV9d+P6l6VBJGgMFvcCX3da54e8bVby99od4LwgjoC7zPizdjr0cqowjo9eoHcLyUoUTg7djKED9FIwho8CA1IL1u5UsZEtktDwU9qAIMAv78fBQIeAaUibAKkL9sY9SpAvyE8XD0el/lpmcAJFg+6q3ogALsVPbYcPUtAeRRkNC+SnPHAT4w97Zp8KvI+mgSaALst7id99UNVylgtWMfMRiLWdsl2iIGTcA+MCCm63gXBOh4Iy7LrnER+pgCRngrvS4EQHXQ5Ri0QRD6hwYf58EUgPx7hYMGbA+0+SRoQ91L1HcF/jfOjqH9aYItIK+C9krAPgJwEAborzaMxTwI1MtJ0IawZxENPr4PWwC+AwCsRACKNea2GjgAvhyf57I5E+ZGoM/2V+1Wp20RBPjJOxCU3pb/cglgALdq7KjgOMQS/urI5T7mHi3rqz5mJZKArRyWwK6sEkDeFDZJhmzlILZBCChIOtyusjg8fnVoAsIRrf1CElBLsHK8BFQCrB0uAbUEK8dLQCXA2uESUEuwcrwEVAKsHS4BtQQrx0tAJcDa4RJQS7ByvARUAqwdPkwBtWcdaLwEkGVIgASQCZDTawVIAJkAOb1WgASQCZDTawVIAJkAOb1WwHAEkL/pP5peK4AsVgIkgEyAnF4rQALIBMjptQIkgEyAnF4rQALIBMjptQJ2COi7+xcAAAD//+ELpJMAAAAGSURBVAMA7ep/0Bh2EBAAAAAASUVORK5CYII=;" vertex="1" parent="1">
          <mxGeometry x="490" y="177" width="96" height="96" as="geometry" />
        </mxCell>
      </root>
    </mxGraphModel>
  </diagram>
</mxfile>
